<?xml version="1.0" encoding="utf-8" standalone="no"?>
<!DOCTYPE svg PUBLIC "-//W3C//DTD SVG 1.1//EN"
  "http://www.w3.org/Graphics/SVG/1.1/DTD/svg11.dtd">
<!-- Created with matplotlib (http://matplotlib.org/) -->
<svg height="576pt" version="1.1" viewBox="0 0 864 576" width="864pt" xmlns="http://www.w3.org/2000/svg" xmlns:xlink="http://www.w3.org/1999/xlink">
 <defs>
  <style type="text/css">
*{stroke-linecap:butt;stroke-linejoin:round;}
  </style>
 </defs>
 <g id="figure_1">
  <g id="patch_1">
   <path d="
M0 576
L864 576
L864 0
L0 0
z
" style="fill:#ffffff;"/>
  </g>
  <g id="axes_1">
   <g id="patch_2">
    <path d="
M108 518.4
L777.6 518.4
L777.6 57.6
L108 57.6
z
" style="fill:#ffffff;"/>
   </g>
   <g id="patch_3">
    <path d="
M777.6 518.4
L777.6 57.6" style="fill:none;stroke:#000000;stroke-linecap:square;stroke-linejoin:miter;stroke-width:1.4;"/>
   </g>
   <g id="patch_4">
    <path d="
M108 518.4
L108 57.6" style="fill:none;stroke:#000000;stroke-linecap:square;stroke-linejoin:miter;stroke-width:1.4;"/>
   </g>
   <g id="patch_5">
    <path d="
M108 518.4
L777.6 518.4" style="fill:none;stroke:#000000;stroke-linecap:square;stroke-linejoin:miter;stroke-width:1.4;"/>
   </g>
   <g id="patch_6">
    <path d="
M108 57.6
L777.6 57.6" style="fill:none;stroke:#000000;stroke-linecap:square;stroke-linejoin:miter;stroke-width:1.4;"/>
   </g>
   <g id="matplotlib.axis_1">
    <g id="xtick_1">
     <g id="line2d_1">
      <defs>
       <path d="
M0 0
L0 -6" id="m5290c60812" style="stroke:#000000;stroke-width:0.5;"/>
      </defs>
      <g>
       <use style="stroke:#000000;stroke-width:0.5;" x="219.6" xlink:href="#m5290c60812" y="518.4"/>
      </g>
     </g>
     <g id="line2d_2">
      <defs>
       <path d="
M0 0
L0 6" id="md815df0341" style="stroke:#000000;stroke-width:0.5;"/>
      </defs>
      <g>
       <use style="stroke:#000000;stroke-width:0.5;" x="219.6" xlink:href="#md815df0341" y="57.6"/>
      </g>
     </g>
     <g id="text_1">
      <!-- 0 -->
      <defs>
       <path d="
M31.7812 66.4062
Q24.1719 66.4062 20.3281 58.9062
Q16.5 51.4219 16.5 36.375
Q16.5 21.3906 20.3281 13.8906
Q24.1719 6.39062 31.7812 6.39062
Q39.4531 6.39062 43.2812 13.8906
Q47.125 21.3906 47.125 36.375
Q47.125 51.4219 43.2812 58.9062
Q39.4531 66.4062 31.7812 66.4062
M31.7812 74.2188
Q44.0469 74.2188 50.5156 64.5156
Q56.9844 54.8281 56.9844 36.375
Q56.9844 17.9688 50.5156 8.26562
Q44.0469 -1.42188 31.7812 -1.42188
Q19.5312 -1.42188 13.0625 8.26562
Q6.59375 17.9688 6.59375 36.375
Q6.59375 54.8281 13.0625 64.5156
Q19.5312 74.2188 31.7812 74.2188" id="BitstreamVeraSans-Roman-30"/>
      </defs>
      <g transform="translate(216.07265625 537.0378125)scale(0.14 -0.14)">
       <use xlink:href="#BitstreamVeraSans-Roman-30"/>
      </g>
     </g>
    </g>
    <g id="xtick_2">
     <g id="line2d_3">
      <g>
       <use style="stroke:#000000;stroke-width:0.5;" x="442.8" xlink:href="#m5290c60812" y="518.4"/>
      </g>
     </g>
     <g id="line2d_4">
      <g>
       <use style="stroke:#000000;stroke-width:0.5;" x="442.8" xlink:href="#md815df0341" y="57.6"/>
      </g>
     </g>
     <g id="text_2">
      <!-- 2 -->
      <defs>
       <path d="
M19.1875 8.29688
L53.6094 8.29688
L53.6094 0
L7.32812 0
L7.32812 8.29688
Q12.9375 14.1094 22.625 23.8906
Q32.3281 33.6875 34.8125 36.5312
Q39.5469 41.8438 41.4219 45.5312
Q43.3125 49.2188 43.3125 52.7812
Q43.3125 58.5938 39.2344 62.25
Q35.1562 65.9219 28.6094 65.9219
Q23.9688 65.9219 18.8125 64.3125
Q13.6719 62.7031 7.8125 59.4219
L7.8125 69.3906
Q13.7656 71.7812 18.9375 73
Q24.125 74.2188 28.4219 74.2188
Q39.75 74.2188 46.4844 68.5469
Q53.2188 62.8906 53.2188 53.4219
Q53.2188 48.9219 51.5312 44.8906
Q49.8594 40.875 45.4062 35.4062
Q44.1875 33.9844 37.6406 27.2188
Q31.1094 20.4531 19.1875 8.29688" id="BitstreamVeraSans-Roman-32"/>
      </defs>
      <g transform="translate(439.5603125 537.0378125)scale(0.14 -0.14)">
       <use xlink:href="#BitstreamVeraSans-Roman-32"/>
      </g>
     </g>
    </g>
    <g id="xtick_3">
     <g id="line2d_5">
      <g>
       <use style="stroke:#000000;stroke-width:0.5;" x="666.0" xlink:href="#m5290c60812" y="518.4"/>
      </g>
     </g>
     <g id="line2d_6">
      <g>
       <use style="stroke:#000000;stroke-width:0.5;" x="666.0" xlink:href="#md815df0341" y="57.6"/>
      </g>
     </g>
     <g id="text_3">
      <!-- 4 -->
      <defs>
       <path d="
M37.7969 64.3125
L12.8906 25.3906
L37.7969 25.3906
z

M35.2031 72.9062
L47.6094 72.9062
L47.6094 25.3906
L58.0156 25.3906
L58.0156 17.1875
L47.6094 17.1875
L47.6094 0
L37.7969 0
L37.7969 17.1875
L4.89062 17.1875
L4.89062 26.7031
z
" id="BitstreamVeraSans-Roman-34"/>
      </defs>
      <g transform="translate(662.28125 537.0378125)scale(0.14 -0.14)">
       <use xlink:href="#BitstreamVeraSans-Roman-34"/>
      </g>
     </g>
    </g>
    <g id="text_4">
     <!-- Number of Events N -->
     <defs>
      <path d="
M54.2969 29.5938
L54.2969 25.2031
L15.375 25.2031
L15.375 24.9062
Q15.375 15.9688 20.0312 11.0781
Q24.7031 6.20312 33.2031 6.20312
Q37.5 6.20312 42.1875 7.5625
Q46.875 8.9375 52.2031 11.7188
L52.2031 2.78125
Q47.0781 0.6875 42.3125 -0.359375
Q37.5469 -1.42188 33.1094 -1.42188
Q20.3594 -1.42188 13.1719 6.21875
Q6 13.875 6 27.2969
Q6 40.375 13.0312 48.1875
Q20.0625 56 31.7812 56
Q42.2344 56 48.2656 48.9219
Q54.2969 41.8438 54.2969 29.5938
M45.3125 32.2344
Q45.125 40.1406 41.5781 44.2656
Q38.0312 48.3906 31.3906 48.3906
Q24.9062 48.3906 20.7031 44.0938
Q16.5 39.7969 15.7188 32.1719
z
" id="BitstreamVeraSansMono-Roman-65"/>
      <path d="
M33.0156 49.125
Q34.6719 52.6406 37.2344 54.3125
Q39.7969 56 43.4062 56
Q50 56 52.7031 50.8906
Q55.4219 45.7969 55.4219 31.6875
L55.4219 0
L47.2188 0
L47.2188 31.2969
Q47.2188 42.875 45.9219 45.6719
Q44.625 48.4844 41.2188 48.4844
Q37.3125 48.4844 35.8594 45.4844
Q34.4219 42.4844 34.4219 31.2969
L34.4219 0
L26.2188 0
L26.2188 31.2969
Q26.2188 43.0156 24.8281 45.75
Q23.4375 48.4844 19.8281 48.4844
Q16.2656 48.4844 14.875 45.4844
Q13.4844 42.4844 13.4844 31.2969
L13.4844 0
L5.32812 0
L5.32812 54.6875
L13.4844 54.6875
L13.4844 50
Q15.0938 52.9375 17.5 54.4688
Q19.9219 56 23 56
Q26.7031 56 29.1719 54.2969
Q31.6406 52.5938 33.0156 49.125" id="BitstreamVeraSansMono-Roman-6d"/>
      <path d="
M9.51562 20.7031
L9.51562 54.5938
L18.5 54.5938
L18.5 20.7031
Q18.5 13.3281 21.1094 9.85938
Q23.7344 6.39062 29.2031 6.39062
Q35.5469 6.39062 38.9062 10.8594
Q42.2812 15.3281 42.2812 23.6875
L42.2812 54.5938
L51.3125 54.5938
L51.3125 0
L42.2812 0
L42.2812 8.20312
Q39.8906 3.46875 35.7656 1.01562
Q31.6406 -1.42188 26.125 -1.42188
Q17.7188 -1.42188 13.6094 4.07812
Q9.51562 9.57812 9.51562 20.7031" id="BitstreamVeraSansMono-Roman-75"/>
      <path d="
M56.3906 43.4062
Q53.5156 45.6562 50.5312 46.6719
Q47.5625 47.7031 44 47.7031
Q35.5938 47.7031 31.1406 42.4219
Q26.7031 37.1562 26.7031 27.2031
L26.7031 0
L17.6719 0
L17.6719 54.6875
L26.7031 54.6875
L26.7031 44
Q28.9531 49.8125 33.6094 52.9062
Q38.2812 56 44.6719 56
Q48 56 50.875 55.1719
Q53.7656 54.3438 56.3906 52.5938
z
" id="BitstreamVeraSansMono-Roman-72"/>
      <path d="
M51.9062 75.9844
L51.9062 68.5
L41.7031 68.5
Q36.8594 68.5 34.9844 66.5156
Q33.1094 64.5469 33.1094 59.5156
L33.1094 54.6875
L51.9062 54.6875
L51.9062 47.7031
L33.1094 47.7031
L33.1094 0
L24.125 0
L24.125 47.7031
L9.51562 47.7031
L9.51562 54.6875
L24.125 54.6875
L24.125 58.5
Q24.125 67.4844 28.25 71.7344
Q32.375 75.9844 41.1094 75.9844
z
" id="BitstreamVeraSansMono-Roman-66"/>
      <path d="
M47.5156 52.7812
L47.5156 44
Q43.6562 46.2344 39.75 47.3594
Q35.8438 48.4844 31.7812 48.4844
Q25.6875 48.4844 22.6719 46.5
Q19.6719 44.5312 19.6719 40.4844
Q19.6719 36.8125 21.9219 35
Q24.1719 33.2031 33.1094 31.5
L36.7188 30.8125
Q43.4062 29.5469 46.8438 25.7344
Q50.2969 21.9219 50.2969 15.8281
Q50.2969 7.71875 44.5312 3.14062
Q38.7656 -1.42188 28.5156 -1.42188
Q24.4688 -1.42188 20.0156 -0.5625
Q15.5781 0.296875 10.4062 2
L10.4062 11.2812
Q15.4375 8.6875 20.0156 7.39062
Q24.6094 6.10938 28.7188 6.10938
Q34.6719 6.10938 37.9375 8.51562
Q41.2188 10.9375 41.2188 15.2812
Q41.2188 21.5312 29.25 23.9219
L28.8594 24.0312
L25.4844 24.7031
Q17.7188 26.2188 14.1562 29.8125
Q10.5938 33.4062 10.5938 39.5938
Q10.5938 47.4688 15.9062 51.7344
Q21.2344 56 31.1094 56
Q35.5 56 39.5469 55.1875
Q43.6094 54.3906 47.5156 52.7812" id="BitstreamVeraSansMono-Roman-73"/>
      <path d="
M6.78125 72.9062
L19.2812 72.9062
L43.8906 12.8906
L43.8906 72.9062
L53.4219 72.9062
L53.4219 0
L40.9219 0
L16.3125 60.0156
L16.3125 0
L6.78125 0
z
" id="BitstreamVeraSansMono-Roman-4e"/>
      <path id="BitstreamVeraSansMono-Roman-20"/>
      <path d="
M44.8281 27.2969
Q44.8281 37.75 41.5 43.0625
Q38.1875 48.3906 31.6875 48.3906
Q25.1406 48.3906 21.7656 43.0469
Q18.4062 37.7031 18.4062 27.2969
Q18.4062 16.9375 21.7656 11.5625
Q25.1406 6.20312 31.6875 6.20312
Q38.1875 6.20312 41.5 11.5156
Q44.8281 16.8438 44.8281 27.2969
M18.4062 47.7031
Q20.5625 51.7031 24.3438 53.8438
Q28.125 56 33.1094 56
Q42.9688 56 48.625 48.4062
Q54.2969 40.8281 54.2969 27.4844
Q54.2969 13.9688 48.6094 6.26562
Q42.9219 -1.42188 33.0156 -1.42188
Q28.125 -1.42188 24.3906 0.703125
Q20.6562 2.82812 18.4062 6.89062
L18.4062 0
L9.42188 0
L9.42188 75.9844
L18.4062 75.9844
z
" id="BitstreamVeraSansMono-Roman-62"/>
      <path d="
M51.3125 33.8906
L51.3125 0
L42.2812 0
L42.2812 33.8906
Q42.2812 41.2656 39.6875 44.7188
Q37.1094 48.1875 31.5938 48.1875
Q25.2969 48.1875 21.8906 43.7188
Q18.5 39.2656 18.5 30.9062
L18.5 0
L9.51562 0
L9.51562 54.6875
L18.5 54.6875
L18.5 46.4844
Q20.9062 51.1719 25 53.5781
Q29.1094 56 34.7188 56
Q43.0625 56 47.1875 50.5
Q51.3125 45.0156 51.3125 33.8906" id="BitstreamVeraSansMono-Roman-6e"/>
      <path d="
M4.89062 54.6875
L14.2031 54.6875
L30.0781 8.79688
L46 54.6875
L55.3281 54.6875
L35.8906 0
L24.3125 0
z
" id="BitstreamVeraSansMono-Roman-76"/>
      <path d="
M29.9844 70.2188
L29.9844 54.6875
L50.3906 54.6875
L50.3906 47.7031
L29.9844 47.7031
L29.9844 18.0156
Q29.9844 11.9688 32.2812 9.5625
Q34.5781 7.17188 40.2812 7.17188
L50.3906 7.17188
L50.3906 0
L39.4062 0
Q29.2969 0 25.1406 4.04688
Q21 8.10938 21 18.0156
L21 47.7031
L6.39062 47.7031
L6.39062 54.6875
L21 54.6875
L21 70.2188
z
" id="BitstreamVeraSansMono-Roman-74"/>
      <path d="
M30.0781 48.3906
Q23.25 48.3906 19.7344 43.0625
Q16.2188 37.75 16.2188 27.2969
Q16.2188 16.8906 19.7344 11.5469
Q23.25 6.20312 30.0781 6.20312
Q36.9688 6.20312 40.4844 11.5469
Q44 16.8906 44 27.2969
Q44 37.75 40.4844 43.0625
Q36.9688 48.3906 30.0781 48.3906
M30.0781 56
Q41.4531 56 47.4844 48.625
Q53.5156 41.2656 53.5156 27.2969
Q53.5156 13.2812 47.5 5.92188
Q41.5 -1.42188 30.0781 -1.42188
Q18.7031 -1.42188 12.6875 5.92188
Q6.6875 13.2812 6.6875 27.2969
Q6.6875 41.2656 12.6875 48.625
Q18.7031 56 30.0781 56" id="BitstreamVeraSansMono-Roman-6f"/>
      <path d="
M9.625 72.9062
L52.875 72.9062
L52.875 64.5938
L19.4844 64.5938
L19.4844 43.0156
L51.4219 43.0156
L51.4219 34.7188
L19.4844 34.7188
L19.4844 8.29688
L53.8125 8.29688
L53.8125 0
L9.625 0
z
" id="BitstreamVeraSansMono-Roman-45"/>
     </defs>
     <g transform="translate(372.803125 554.89640625)scale(0.13 -0.13)">
      <use xlink:href="#BitstreamVeraSansMono-Roman-4e"/>
      <use x="60.205078125" xlink:href="#BitstreamVeraSansMono-Roman-75"/>
      <use x="120.41015625" xlink:href="#BitstreamVeraSansMono-Roman-6d"/>
      <use x="180.615234375" xlink:href="#BitstreamVeraSansMono-Roman-62"/>
      <use x="240.8203125" xlink:href="#BitstreamVeraSansMono-Roman-65"/>
      <use x="301.025390625" xlink:href="#BitstreamVeraSansMono-Roman-72"/>
      <use x="361.23046875" xlink:href="#BitstreamVeraSansMono-Roman-20"/>
      <use x="421.435546875" xlink:href="#BitstreamVeraSansMono-Roman-6f"/>
      <use x="481.640625" xlink:href="#BitstreamVeraSansMono-Roman-66"/>
      <use x="541.845703125" xlink:href="#BitstreamVeraSansMono-Roman-20"/>
      <use x="602.05078125" xlink:href="#BitstreamVeraSansMono-Roman-45"/>
      <use x="662.255859375" xlink:href="#BitstreamVeraSansMono-Roman-76"/>
      <use x="722.4609375" xlink:href="#BitstreamVeraSansMono-Roman-65"/>
      <use x="782.666015625" xlink:href="#BitstreamVeraSansMono-Roman-6e"/>
      <use x="842.87109375" xlink:href="#BitstreamVeraSansMono-Roman-74"/>
      <use x="903.076171875" xlink:href="#BitstreamVeraSansMono-Roman-73"/>
      <use x="963.28125" xlink:href="#BitstreamVeraSansMono-Roman-20"/>
      <use x="1023.486328125" xlink:href="#BitstreamVeraSansMono-Roman-4e"/>
     </g>
    </g>
   </g>
   <g id="matplotlib.axis_2">
    <g id="ytick_1">
     <g id="line2d_7">
      <defs>
       <path d="
M0 0
L6 0" id="m247a9f6067" style="stroke:#000000;stroke-width:0.5;"/>
      </defs>
      <g>
       <use style="stroke:#000000;stroke-width:0.5;" x="108.0" xlink:href="#m247a9f6067" y="518.4"/>
      </g>
     </g>
     <g id="line2d_8">
      <defs>
       <path d="
M0 0
L-6 0" id="ma152bad54f" style="stroke:#000000;stroke-width:0.5;"/>
      </defs>
      <g>
       <use style="stroke:#000000;stroke-width:0.5;" x="777.6" xlink:href="#ma152bad54f" y="518.4"/>
      </g>
     </g>
     <g id="text_5">
      <!-- 0.0 -->
      <defs>
       <path d="
M10.6875 12.4062
L21 12.4062
L21 0
L10.6875 0
z
" id="BitstreamVeraSans-Roman-2e"/>
      </defs>
      <g transform="translate(79.5884375 522.263125)scale(0.14 -0.14)">
       <use xlink:href="#BitstreamVeraSans-Roman-30"/>
       <use x="63.623046875" xlink:href="#BitstreamVeraSans-Roman-2e"/>
       <use x="95.41015625" xlink:href="#BitstreamVeraSans-Roman-30"/>
      </g>
     </g>
    </g>
    <g id="ytick_2">
     <g id="line2d_9">
      <g>
       <use style="stroke:#000000;stroke-width:0.5;" x="108.0" xlink:href="#m247a9f6067" y="426.24"/>
      </g>
     </g>
     <g id="line2d_10">
      <g>
       <use style="stroke:#000000;stroke-width:0.5;" x="777.6" xlink:href="#ma152bad54f" y="426.24"/>
      </g>
     </g>
     <g id="text_6">
      <!-- 0.2 -->
      <g transform="translate(80.0609375 430.103125)scale(0.14 -0.14)">
       <use xlink:href="#BitstreamVeraSans-Roman-30"/>
       <use x="63.623046875" xlink:href="#BitstreamVeraSans-Roman-2e"/>
       <use x="95.41015625" xlink:href="#BitstreamVeraSans-Roman-32"/>
      </g>
     </g>
    </g>
    <g id="ytick_3">
     <g id="line2d_11">
      <g>
       <use style="stroke:#000000;stroke-width:0.5;" x="108.0" xlink:href="#m247a9f6067" y="334.08"/>
      </g>
     </g>
     <g id="line2d_12">
      <g>
       <use style="stroke:#000000;stroke-width:0.5;" x="777.6" xlink:href="#ma152bad54f" y="334.08"/>
      </g>
     </g>
     <g id="text_7">
      <!-- 0.4 -->
      <g transform="translate(79.4440625 337.943125)scale(0.14 -0.14)">
       <use xlink:href="#BitstreamVeraSans-Roman-30"/>
       <use x="63.623046875" xlink:href="#BitstreamVeraSans-Roman-2e"/>
       <use x="95.41015625" xlink:href="#BitstreamVeraSans-Roman-34"/>
      </g>
     </g>
    </g>
    <g id="ytick_4">
     <g id="line2d_13">
      <g>
       <use style="stroke:#000000;stroke-width:0.5;" x="108.0" xlink:href="#m247a9f6067" y="241.92"/>
      </g>
     </g>
     <g id="line2d_14">
      <g>
       <use style="stroke:#000000;stroke-width:0.5;" x="777.6" xlink:href="#ma152bad54f" y="241.92"/>
      </g>
     </g>
     <g id="text_8">
      <!-- 0.6 -->
      <defs>
       <path d="
M33.0156 40.375
Q26.375 40.375 22.4844 35.8281
Q18.6094 31.2969 18.6094 23.3906
Q18.6094 15.5312 22.4844 10.9531
Q26.375 6.39062 33.0156 6.39062
Q39.6562 6.39062 43.5312 10.9531
Q47.4062 15.5312 47.4062 23.3906
Q47.4062 31.2969 43.5312 35.8281
Q39.6562 40.375 33.0156 40.375
M52.5938 71.2969
L52.5938 62.3125
Q48.875 64.0625 45.0938 64.9844
Q41.3125 65.9219 37.5938 65.9219
Q27.8281 65.9219 22.6719 59.3281
Q17.5312 52.7344 16.7969 39.4062
Q19.6719 43.6562 24.0156 45.9219
Q28.375 48.1875 33.5938 48.1875
Q44.5781 48.1875 50.9531 41.5156
Q57.3281 34.8594 57.3281 23.3906
Q57.3281 12.1562 50.6875 5.35938
Q44.0469 -1.42188 33.0156 -1.42188
Q20.3594 -1.42188 13.6719 8.26562
Q6.98438 17.9688 6.98438 36.375
Q6.98438 53.6562 15.1875 63.9375
Q23.3906 74.2188 37.2031 74.2188
Q40.9219 74.2188 44.7031 73.4844
Q48.4844 72.75 52.5938 71.2969" id="BitstreamVeraSans-Roman-36"/>
      </defs>
      <g transform="translate(79.5403125 245.783125)scale(0.14 -0.14)">
       <use xlink:href="#BitstreamVeraSans-Roman-30"/>
       <use x="63.623046875" xlink:href="#BitstreamVeraSans-Roman-2e"/>
       <use x="95.41015625" xlink:href="#BitstreamVeraSans-Roman-36"/>
      </g>
     </g>
    </g>
    <g id="ytick_5">
     <g id="line2d_15">
      <g>
       <use style="stroke:#000000;stroke-width:0.5;" x="108.0" xlink:href="#m247a9f6067" y="149.76"/>
      </g>
     </g>
     <g id="line2d_16">
      <g>
       <use style="stroke:#000000;stroke-width:0.5;" x="777.6" xlink:href="#ma152bad54f" y="149.76"/>
      </g>
     </g>
     <g id="text_9">
      <!-- 0.8 -->
      <defs>
       <path d="
M31.7812 34.625
Q24.75 34.625 20.7188 30.8594
Q16.7031 27.0938 16.7031 20.5156
Q16.7031 13.9219 20.7188 10.1562
Q24.75 6.39062 31.7812 6.39062
Q38.8125 6.39062 42.8594 10.1719
Q46.9219 13.9688 46.9219 20.5156
Q46.9219 27.0938 42.8906 30.8594
Q38.875 34.625 31.7812 34.625
M21.9219 38.8125
Q15.5781 40.375 12.0312 44.7188
Q8.5 49.0781 8.5 55.3281
Q8.5 64.0625 14.7188 69.1406
Q20.9531 74.2188 31.7812 74.2188
Q42.6719 74.2188 48.875 69.1406
Q55.0781 64.0625 55.0781 55.3281
Q55.0781 49.0781 51.5312 44.7188
Q48 40.375 41.7031 38.8125
Q48.8281 37.1562 52.7969 32.3125
Q56.7812 27.4844 56.7812 20.5156
Q56.7812 9.90625 50.3125 4.23438
Q43.8438 -1.42188 31.7812 -1.42188
Q19.7344 -1.42188 13.25 4.23438
Q6.78125 9.90625 6.78125 20.5156
Q6.78125 27.4844 10.7812 32.3125
Q14.7969 37.1562 21.9219 38.8125
M18.3125 54.3906
Q18.3125 48.7344 21.8438 45.5625
Q25.3906 42.3906 31.7812 42.3906
Q38.1406 42.3906 41.7188 45.5625
Q45.3125 48.7344 45.3125 54.3906
Q45.3125 60.0625 41.7188 63.2344
Q38.1406 66.4062 31.7812 66.4062
Q25.3906 66.4062 21.8438 63.2344
Q18.3125 60.0625 18.3125 54.3906" id="BitstreamVeraSans-Roman-38"/>
      </defs>
      <g transform="translate(79.616875 153.623125)scale(0.14 -0.14)">
       <use xlink:href="#BitstreamVeraSans-Roman-30"/>
       <use x="63.623046875" xlink:href="#BitstreamVeraSans-Roman-2e"/>
       <use x="95.41015625" xlink:href="#BitstreamVeraSans-Roman-38"/>
      </g>
     </g>
    </g>
    <g id="ytick_6">
     <g id="line2d_17">
      <g>
       <use style="stroke:#000000;stroke-width:0.5;" x="108.0" xlink:href="#m247a9f6067" y="57.6"/>
      </g>
     </g>
     <g id="line2d_18">
      <g>
       <use style="stroke:#000000;stroke-width:0.5;" x="777.6" xlink:href="#ma152bad54f" y="57.6"/>
      </g>
     </g>
     <g id="text_10">
      <!-- 1.0 -->
      <defs>
       <path d="
M12.4062 8.29688
L28.5156 8.29688
L28.5156 63.9219
L10.9844 60.4062
L10.9844 69.3906
L28.4219 72.9062
L38.2812 72.9062
L38.2812 8.29688
L54.3906 8.29688
L54.3906 0
L12.4062 0
z
" id="BitstreamVeraSans-Roman-31"/>
      </defs>
      <g transform="translate(80.203125 61.463125)scale(0.14 -0.14)">
       <use xlink:href="#BitstreamVeraSans-Roman-31"/>
       <use x="63.623046875" xlink:href="#BitstreamVeraSans-Roman-2e"/>
       <use x="95.41015625" xlink:href="#BitstreamVeraSans-Roman-30"/>
      </g>
     </g>
    </g>
    <g id="text_11">
     <!-- Fraction of Cases -->
     <defs>
      <path d="
M11.375 72.9062
L54.2969 72.9062
L54.2969 64.5938
L21.2969 64.5938
L21.2969 43.1094
L51.2188 43.1094
L51.2188 34.8125
L21.2969 34.8125
L21.2969 0
L11.375 0
z
" id="BitstreamVeraSansMono-Roman-46"/>
      <path d="
M34.2812 27.4844
L31.2969 27.4844
Q23.4375 27.4844 19.4531 24.7188
Q15.4844 21.9688 15.4844 16.5
Q15.4844 11.5781 18.4531 8.84375
Q21.4375 6.10938 26.7031 6.10938
Q34.125 6.10938 38.375 11.25
Q42.625 16.4062 42.6719 25.4844
L42.6719 27.4844
z

M51.7031 31.2031
L51.7031 0
L42.6719 0
L42.6719 8.10938
Q39.7969 3.21875 35.4219 0.890625
Q31.0625 -1.42188 24.8125 -1.42188
Q16.4531 -1.42188 11.4688 3.29688
Q6.5 8.01562 6.5 15.9219
Q6.5 25.0469 12.625 29.7812
Q18.75 34.5156 30.6094 34.5156
L42.6719 34.5156
L42.6719 35.9375
Q42.625 42.4844 39.3438 45.4375
Q36.0781 48.3906 28.9062 48.3906
Q24.3125 48.3906 19.625 47.0625
Q14.9375 45.75 10.5 43.2188
L10.5 52.2031
Q15.4844 54.1094 20.0469 55.0469
Q24.6094 56 28.9062 56
Q35.6875 56 40.5 54
Q45.3125 52 48.2969 48
Q50.1406 45.5625 50.9219 41.9688
Q51.7031 38.375 51.7031 31.2031" id="BitstreamVeraSansMono-Roman-61"/>
      <path d="
M52.3906 2.59375
Q48.6406 0.59375 44.6719 -0.40625
Q40.7188 -1.42188 36.2812 -1.42188
Q22.2656 -1.42188 14.5156 8.48438
Q6.78125 18.4062 6.78125 36.375
Q6.78125 54.25 14.5625 64.2344
Q22.3594 74.2188 36.2812 74.2188
Q40.7188 74.2188 44.6719 73.2188
Q48.6406 72.2188 52.3906 70.2188
L52.3906 60.1094
Q48.7812 63.0938 44.625 64.6562
Q40.4844 66.2188 36.2812 66.2188
Q26.6562 66.2188 21.875 58.7969
Q17.0938 51.375 17.0938 36.375
Q17.0938 21.4375 21.875 14.0156
Q26.6562 6.59375 36.2812 6.59375
Q40.5781 6.59375 44.7031 8.15625
Q48.8281 9.71875 52.3906 12.7031
z
" id="BitstreamVeraSansMono-Roman-43"/>
      <path d="
M12.5 54.6875
L35.5 54.6875
L35.5 6.98438
L53.3281 6.98438
L53.3281 0
L8.6875 0
L8.6875 6.98438
L26.5156 6.98438
L26.5156 47.7031
L12.5 47.7031
z

M26.5156 75.9844
L35.5 75.9844
L35.5 64.5938
L26.5156 64.5938
z
" id="BitstreamVeraSansMono-Roman-69"/>
      <path d="
M51.8125 2.78125
Q48.1875 0.6875 44.3594 -0.359375
Q40.5312 -1.42188 36.5312 -1.42188
Q23.8281 -1.42188 16.6719 6.1875
Q9.51562 13.8125 9.51562 27.2969
Q9.51562 40.7656 16.6719 48.375
Q23.8281 56 36.5312 56
Q40.4844 56 44.2344 54.9688
Q48 53.9531 51.8125 51.8125
L51.8125 42.3906
Q48.25 45.5625 44.6562 46.9688
Q41.0625 48.3906 36.5312 48.3906
Q28.0781 48.3906 23.5312 42.9219
Q19 37.4531 19 27.2969
Q19 17.1875 23.5625 11.6875
Q28.125 6.20312 36.5312 6.20312
Q41.2188 6.20312 44.9219 7.64062
Q48.6406 9.07812 51.8125 12.1094
z
" id="BitstreamVeraSansMono-Roman-63"/>
     </defs>
     <g transform="translate(71.74046875 353.880546875)rotate(-90.0)scale(0.13 -0.13)">
      <use xlink:href="#BitstreamVeraSansMono-Roman-46"/>
      <use x="60.205078125" xlink:href="#BitstreamVeraSansMono-Roman-72"/>
      <use x="120.41015625" xlink:href="#BitstreamVeraSansMono-Roman-61"/>
      <use x="180.615234375" xlink:href="#BitstreamVeraSansMono-Roman-63"/>
      <use x="240.8203125" xlink:href="#BitstreamVeraSansMono-Roman-74"/>
      <use x="301.025390625" xlink:href="#BitstreamVeraSansMono-Roman-69"/>
      <use x="361.23046875" xlink:href="#BitstreamVeraSansMono-Roman-6f"/>
      <use x="421.435546875" xlink:href="#BitstreamVeraSansMono-Roman-6e"/>
      <use x="481.640625" xlink:href="#BitstreamVeraSansMono-Roman-20"/>
      <use x="541.845703125" xlink:href="#BitstreamVeraSansMono-Roman-6f"/>
      <use x="602.05078125" xlink:href="#BitstreamVeraSansMono-Roman-66"/>
      <use x="662.255859375" xlink:href="#BitstreamVeraSansMono-Roman-20"/>
      <use x="722.4609375" xlink:href="#BitstreamVeraSansMono-Roman-43"/>
      <use x="782.666015625" xlink:href="#BitstreamVeraSansMono-Roman-61"/>
      <use x="842.87109375" xlink:href="#BitstreamVeraSansMono-Roman-73"/>
      <use x="903.076171875" xlink:href="#BitstreamVeraSansMono-Roman-65"/>
      <use x="963.28125" xlink:href="#BitstreamVeraSansMono-Roman-73"/>
     </g>
    </g>
   </g>
   <g id="line2d_19">
    <path clip-path="url(#p40d8c4fc83)" d="
M331.2 518.4
L331.2 57.6" style="fill:none;stroke:#000000;stroke-linecap:square;stroke-width:2;"/>
   </g>
   <g id="line2d_20">
    <path clip-path="url(#p40d8c4fc83)" d="
M275.117 518.4
L275.117 57.6" style="fill:none;stroke:#000000;stroke-dasharray:6.000000,6.000000;stroke-dashoffset:0.0;"/>
   </g>
   <g id="patch_7">
    <path clip-path="url(#p40d8c4fc83)" d="
M108 69.12
L108 57.6
L331.2 57.6
L331.2 69.12
z
" style="fill:#a6a6a6;stroke:#000000;stroke-linejoin:miter;"/>
   </g>
   <g id="patch_8">
    <path clip-path="url(#p40d8c4fc83)" d="
M331.2 518.4
L331.2 506.88
L777.6 506.88
L777.6 518.4
z
" style="fill:#a6a6a6;stroke:#000000;stroke-linejoin:miter;"/>
   </g>
   <g id="line2d_21">
    <path clip-path="url(#p40d8c4fc83)" d="
M108 518.4
L108 238.201
L219.6 238.201
L219.6 98.812
L331.2 98.812
L331.2 64.1416
L442.8 64.1416
L442.8 58.3925
L554.4 58.3925
L554.4 57.6775
L666 57.6775
L666 57.6063
L777.6 57.6063" style="fill:none;stroke:#008000;stroke-linecap:square;"/>
   </g>
   <g id="legend_1">
    <g id="patch_9">
     <path d="
M112.858 43.526
L772.742 43.526
L772.742 26.0281
L112.858 26.0281
z
" style="fill:#ffffff;stroke:#000000;stroke-linejoin:miter;"/>
    </g>
    <g id="line2d_22">
     <path d="
M119.659 33.9481
L133.262 33.9481" style="fill:none;stroke:#008000;stroke-linecap:square;"/>
    </g>
    <g id="line2d_23"/>
    <g id="text_12">
     <!-- ETAS_Oneday -->
     <defs>
      <path d="
M2.29688 72.9062
L57.9062 72.9062
L57.9062 64.5938
L35.1094 64.5938
L35.1094 0
L25.2031 0
L25.2031 64.5938
L2.29688 64.5938
z
" id="BitstreamVeraSansMono-Roman-54"/>
      <path d="
M50 -19.6719
L50 -23.5781
L0 -23.5781
L0 -19.6719
z
" id="BitstreamVeraSansMono-Roman-5f"/>
      <path d="
M30.0781 64.2031
L19.6719 26.9062
L40.4844 26.9062
z

M24.125 72.9062
L36.0781 72.9062
L58.4062 0
L48.1875 0
L42.8281 19
L17.2812 19
L12.0156 0
L1.8125 0
z
" id="BitstreamVeraSansMono-Roman-41"/>
      <path d="
M49.4219 70.4062
L49.4219 60.4062
Q44.9219 63.2812 40.4062 64.75
Q35.8906 66.2188 31.2969 66.2188
Q24.3125 66.2188 20.2656 62.9688
Q16.2188 59.7188 16.2188 54.2031
Q16.2188 49.3594 18.875 46.8125
Q21.5312 44.2812 28.8125 42.5781
L33.9844 41.4062
Q44.2344 39.0156 48.9219 33.8906
Q53.6094 28.7656 53.6094 19.9219
Q53.6094 9.51562 47.1562 4.04688
Q40.7188 -1.42188 28.4219 -1.42188
Q23.2969 -1.42188 18.1094 -0.3125
Q12.9375 0.78125 7.71875 2.98438
L7.71875 13.4844
Q13.3281 9.90625 18.3281 8.25
Q23.3438 6.59375 28.4219 6.59375
Q35.8906 6.59375 40.0312 9.9375
Q44.1875 13.2812 44.1875 19.2812
Q44.1875 24.75 41.3281 27.625
Q38.4844 30.5156 31.3906 32.0781
L26.125 33.2969
Q15.9688 35.5938 11.375 40.2344
Q6.78125 44.875 6.78125 52.6875
Q6.78125 62.4531 13.3438 68.3281
Q19.9219 74.2188 30.8125 74.2188
Q35.0156 74.2188 39.6406 73.2656
Q44.2812 72.3125 49.4219 70.4062" id="BitstreamVeraSansMono-Roman-53"/>
      <path d="
M44.1875 36.375
Q44.1875 52.4375 40.8906 59.3281
Q37.5938 66.2188 30.0781 66.2188
Q22.6094 66.2188 19.3125 59.3281
Q16.0156 52.4375 16.0156 36.375
Q16.0156 20.3594 19.3125 13.4688
Q22.6094 6.59375 30.0781 6.59375
Q37.5938 6.59375 40.8906 13.4531
Q44.1875 20.3125 44.1875 36.375
M54.5 36.375
Q54.5 17.3281 48.4688 7.95312
Q42.4375 -1.42188 30.0781 -1.42188
Q17.7188 -1.42188 11.7188 7.90625
Q5.71875 17.2344 5.71875 36.375
Q5.71875 55.4688 11.75 64.8438
Q17.7812 74.2188 30.0781 74.2188
Q42.4375 74.2188 48.4688 64.8438
Q54.5 55.4688 54.5 36.375" id="BitstreamVeraSansMono-Roman-4f"/>
      <path d="
M41.8906 17.5781
Q39.6562 11.8594 36.1875 2.54688
Q31.3438 -10.3594 29.6875 -13.1875
Q27.4375 -17 24.0625 -18.8906
Q20.7031 -20.7969 16.2188 -20.7969
L8.98438 -20.7969
L8.98438 -13.2812
L14.3125 -13.2812
Q18.2656 -13.2812 20.5 -10.9844
Q22.75 -8.6875 26.2188 0.875
L5.07812 54.6875
L14.5938 54.6875
L30.8125 11.9219
L46.7812 54.6875
L56.2969 54.6875
z
" id="BitstreamVeraSansMono-Roman-79"/>
      <path d="
M41.8906 47.7031
L41.8906 75.9844
L50.875 75.9844
L50.875 0
L41.8906 0
L41.8906 6.89062
Q39.6562 2.82812 35.9062 0.703125
Q32.1719 -1.42188 27.2969 -1.42188
Q17.3906 -1.42188 11.6875 6.26562
Q6 13.9688 6 27.4844
Q6 40.8281 11.7188 48.4062
Q17.4375 56 27.2969 56
Q32.2344 56 35.9844 53.875
Q39.75 51.7656 41.8906 47.7031
M15.4844 27.2969
Q15.4844 16.8438 18.7969 11.5156
Q22.125 6.20312 28.6094 6.20312
Q35.1094 6.20312 38.5 11.5625
Q41.8906 16.9375 41.8906 27.2969
Q41.8906 37.7031 38.5 43.0469
Q35.1094 48.3906 28.6094 48.3906
Q22.125 48.3906 18.7969 43.0625
Q15.4844 37.75 15.4844 27.2969" id="BitstreamVeraSansMono-Roman-64"/>
     </defs>
     <g transform="translate(143.9492 37.348749375)scale(0.09716 -0.09716)">
      <use xlink:href="#BitstreamVeraSansMono-Roman-45"/>
      <use x="60.205078125" xlink:href="#BitstreamVeraSansMono-Roman-54"/>
      <use x="120.41015625" xlink:href="#BitstreamVeraSansMono-Roman-41"/>
      <use x="180.615234375" xlink:href="#BitstreamVeraSansMono-Roman-53"/>
      <use x="240.8203125" xlink:href="#BitstreamVeraSansMono-Roman-5f"/>
      <use x="301.025390625" xlink:href="#BitstreamVeraSansMono-Roman-4f"/>
      <use x="361.23046875" xlink:href="#BitstreamVeraSansMono-Roman-6e"/>
      <use x="421.435546875" xlink:href="#BitstreamVeraSansMono-Roman-65"/>
      <use x="481.640625" xlink:href="#BitstreamVeraSansMono-Roman-64"/>
      <use x="541.845703125" xlink:href="#BitstreamVeraSansMono-Roman-61"/>
      <use x="602.05078125" xlink:href="#BitstreamVeraSansMono-Roman-79"/>
     </g>
    </g>
   </g>
  </g>
 </g>
 <defs>
  <clipPath id="p40d8c4fc83">
   <rect height="460.8" width="669.6" x="108.0" y="57.6"/>
  </clipPath>
 </defs>
</svg>
